<?xml version="1.0" ?><svg height="48" viewBox="0 0 48 48" width="48" xmlns="http://www.w3.org/2000/svg"><defs><style>.cls-1{fill:#fed049;}.cls-2{fill:#f6b445;}.cls-3{fill:#474c54;}</style></defs><title/><g data-name="24-Bitcoin-Process" id="_24-Bitcoin-Process"><path class="cls-1" d="M47,21v6a2.006,2.006,0,0,1-2,2H40.25a17,17,0,0,1-1.23,2.95l3.36,3.36a1.986,1.986,0,0,1,0,2.83l-4.24,4.24a1.986,1.986,0,0,1-2.83,0l-3.36-3.36A17,17,0,0,1,29,40.25V45a2.006,2.006,0,0,1-2,2H21a2.006,2.006,0,0,1-2-2V40.25a17,17,0,0,1-2.95-1.23l-3.36,3.36a1.986,1.986,0,0,1-2.83,0L5.62,38.14a1.986,1.986,0,0,1,0-2.83l3.36-3.36A17,17,0,0,1,7.75,29H3a2.006,2.006,0,0,1-2-2V21a2.006,2.006,0,0,1,2-2H7.75a17,17,0,0,1,1.23-2.95L5.62,12.69a1.986,1.986,0,0,1,0-2.83L9.86,5.62a1.986,1.986,0,0,1,2.83,0l3.36,3.36A17,17,0,0,1,19,7.75V3a2.006,2.006,0,0,1,2-2h6a2.006,2.006,0,0,1,2,2V7.75a17,17,0,0,1,2.95,1.23l3.36-3.36a1.986,1.986,0,0,1,2.83,0l4.24,4.24a1.986,1.986,0,0,1,0,2.83l-3.36,3.36A17,17,0,0,1,40.25,19H45A2.006,2.006,0,0,1,47,21Z"/><circle class="cls-2" cx="24" cy="24" r="14"/><path class="cls-3" d="M45,18H40.971a18.3,18.3,0,0,0-.732-1.755L43.083,13.4a2.988,2.988,0,0,0,0-4.249L38.852,4.917a2.971,2.971,0,0,0-2.127-.889h0a2.964,2.964,0,0,0-2.122.885L31.755,7.761A18.3,18.3,0,0,0,30,7.029V3a3,3,0,0,0-3-3H21a3,3,0,0,0-3,3V7.029a18.3,18.3,0,0,0-1.755.732L13.4,4.917a2.971,2.971,0,0,0-2.127-.889h0a2.964,2.964,0,0,0-2.122.885L4.917,9.148a2.988,2.988,0,0,0,0,4.249l2.848,2.848A18.3,18.3,0,0,0,7.029,18H3a3,3,0,0,0-3,3v6a3,3,0,0,0,3,3H7.029a18.043,18.043,0,0,0,.732,1.755L4.917,34.6a2.988,2.988,0,0,0,0,4.249l4.235,4.236a2.972,2.972,0,0,0,2.127.89h0a2.965,2.965,0,0,0,2.122-.886l2.848-2.849A18.2,18.2,0,0,0,18,40.971V45a3,3,0,0,0,3,3h6a3,3,0,0,0,3-3V40.971a18.2,18.2,0,0,0,1.755-.733L34.6,43.082a2.969,2.969,0,0,0,2.127.891h0a2.965,2.965,0,0,0,2.122-.886l4.235-4.235a2.987,2.987,0,0,0,.005-4.249l-2.848-2.848A18.043,18.043,0,0,0,40.971,30H45a3,3,0,0,0,3-3V21A3,3,0,0,0,45,18Zm1,9a1,1,0,0,1-1,1H40.25a1,1,0,0,0-.955.7,16.047,16.047,0,0,1-1.158,2.777,1,1,0,0,0,.176,1.177l3.364,3.364a.988.988,0,0,1,0,1.412l-4.244,4.244a.985.985,0,0,1-.7.3h0a.989.989,0,0,1-.708-.3l-3.36-3.36a1,1,0,0,0-1.176-.176A16.262,16.262,0,0,1,28.7,39.3a1,1,0,0,0-.7.955V45a1,1,0,0,1-1,1H21a1,1,0,0,1-1-1V40.25a1,1,0,0,0-.7-.955,16.262,16.262,0,0,1-2.778-1.158,1,1,0,0,0-1.176.176l-3.365,3.365a1.008,1.008,0,0,1-1.411,0L6.322,37.428a.988.988,0,0,1,0-1.411l3.36-3.36a1,1,0,0,0,.176-1.177A16.047,16.047,0,0,1,8.705,28.7,1,1,0,0,0,7.75,28H3a1,1,0,0,1-1-1V21a1,1,0,0,1,1-1H7.75a1,1,0,0,0,.955-.7,16.159,16.159,0,0,1,1.158-2.777,1,1,0,0,0-.176-1.176L6.323,11.978a.986.986,0,0,1,0-1.411l4.244-4.244a.98.98,0,0,1,.7-.3h0a.984.984,0,0,1,.708.3l3.36,3.36a1,1,0,0,0,1.176.176A16.159,16.159,0,0,1,19.3,8.705,1,1,0,0,0,20,7.75V3a1,1,0,0,1,1-1h6a1,1,0,0,1,1,1V7.75a1,1,0,0,0,.7.955,16.159,16.159,0,0,1,2.777,1.158,1,1,0,0,0,1.176-.176l3.365-3.364a1.006,1.006,0,0,1,1.411,0l4.244,4.244a.988.988,0,0,1,0,1.412l-3.36,3.36a1,1,0,0,0-.176,1.176A16.159,16.159,0,0,1,39.3,19.3a1,1,0,0,0,.955.7H45a1,1,0,0,1,1,1Z"/><path class="cls-3" d="M32,20a5.006,5.006,0,0,0-5-5V13a1,1,0,0,0-2,0v2H22V13a1,1,0,0,0-2,0v2H19a2.916,2.916,0,0,0-3,3V30a2.916,2.916,0,0,0,3,3h1v2a1,1,0,0,0,2,0V33h3v2a1,1,0,0,0,2,0V33a5,5,0,0,0,3-9A5,5,0,0,0,32,20Zm-2,8a3,3,0,0,1-3,3H19.012A.918.918,0,0,1,18,30V25h9A3,3,0,0,1,30,28Zm-3-5H18V18a.915.915,0,0,1,1-1h8a3,3,0,0,1,0,6Z"/></g></svg>